<mxfile host="app.diagrams.net" agent="Mozilla/5.0 (Windows NT 10.0; Win64; x64) AppleWebKit/537.36 (KHTML, like Gecko) Chrome/127.0.0.0 Safari/537.36" version="24.7.6">
  <diagram name="Page-1" id="sMZNGHHZ9x9z_hb3drra">
    <mxGraphModel dx="1050" dy="557" grid="1" gridSize="10" guides="1" tooltips="1" connect="1" arrows="1" fold="1" page="1" pageScale="1" pageWidth="850" pageHeight="1100" math="0" shadow="0">
      <root>
        <mxCell id="0" />
        <mxCell id="1" parent="0" />
        <mxCell id="qvlMFfMEuGQ3ZVcsGrCn-51" value="" style="rounded=0;whiteSpace=wrap;html=1;strokeColor=#F7F7F7;" parent="1" vertex="1">
          <mxGeometry x="40" y="20" width="780" height="650" as="geometry" />
        </mxCell>
        <mxCell id="qvlMFfMEuGQ3ZVcsGrCn-52" value="" style="swimlane;whiteSpace=wrap;html=1;startSize=30;" parent="1" vertex="1">
          <mxGeometry x="60" y="30" width="740" height="620" as="geometry" />
        </mxCell>
        <mxCell id="qvlMFfMEuGQ3ZVcsGrCn-53" value="&lt;font size=&quot;1&quot; style=&quot;&quot;&gt;&lt;b style=&quot;font-size: 16px;&quot;&gt;Hostel Administrator&lt;/b&gt;&lt;/font&gt;" style="text;html=1;align=center;verticalAlign=middle;whiteSpace=wrap;rounded=0;" parent="qvlMFfMEuGQ3ZVcsGrCn-52" vertex="1">
          <mxGeometry x="69" width="178" height="30" as="geometry" />
        </mxCell>
        <mxCell id="qvlMFfMEuGQ3ZVcsGrCn-54" value="&lt;font size=&quot;1&quot; style=&quot;&quot;&gt;&lt;b style=&quot;font-size: 16px;&quot;&gt;Hostel Managment Software&lt;/b&gt;&lt;/font&gt;" style="text;html=1;align=center;verticalAlign=middle;whiteSpace=wrap;rounded=0;" parent="qvlMFfMEuGQ3ZVcsGrCn-52" vertex="1">
          <mxGeometry x="432" width="228" height="30" as="geometry" />
        </mxCell>
        <mxCell id="qvlMFfMEuGQ3ZVcsGrCn-55" value="" style="endArrow=classic;html=1;rounded=0;entryX=0.859;entryY=0.145;entryDx=0;entryDy=0;entryPerimeter=0;" parent="qvlMFfMEuGQ3ZVcsGrCn-52" edge="1">
          <mxGeometry width="50" height="50" relative="1" as="geometry">
            <mxPoint x="649" y="128" as="sourcePoint" />
            <mxPoint x="688.1500000000001" y="127.5" as="targetPoint" />
          </mxGeometry>
        </mxCell>
        <mxCell id="qvlMFfMEuGQ3ZVcsGrCn-56" value="" style="ellipse;html=1;shape=endState;fillColor=#000000;strokeColor=#0F0000;" parent="qvlMFfMEuGQ3ZVcsGrCn-52" vertex="1">
          <mxGeometry x="689" y="112" width="30" height="30" as="geometry" />
        </mxCell>
        <mxCell id="qvlMFfMEuGQ3ZVcsGrCn-59" value="" style="endArrow=none;html=1;rounded=0;" parent="1" edge="1">
          <mxGeometry width="50" height="50" relative="1" as="geometry">
            <mxPoint x="357" y="650" as="sourcePoint" />
            <mxPoint x="354" y="30" as="targetPoint" />
          </mxGeometry>
        </mxCell>
        <mxCell id="qvlMFfMEuGQ3ZVcsGrCn-60" value="" style="ellipse;html=1;fillColor=#030303;" parent="1" vertex="1">
          <mxGeometry x="70" y="70" width="30" height="30" as="geometry" />
        </mxCell>
        <mxCell id="qvlMFfMEuGQ3ZVcsGrCn-61" value="" style="endArrow=open;html=1;rounded=0;align=center;verticalAlign=top;endFill=0;labelBackgroundColor=none;endSize=6;entryX=0.2;entryY=0.077;entryDx=0;entryDy=0;entryPerimeter=0;" parent="1" edge="1">
          <mxGeometry relative="1" as="geometry">
            <mxPoint x="142" y="84.70000000000005" as="targetPoint" />
            <mxPoint x="72" y="85" as="sourcePoint" />
          </mxGeometry>
        </mxCell>
        <mxCell id="qvlMFfMEuGQ3ZVcsGrCn-62" value="&lt;font style=&quot;font-size: 14px;&quot;&gt;&lt;b&gt;Validate Administrator&lt;/b&gt;&lt;/font&gt;" style="rounded=1;whiteSpace=wrap;html=1;arcSize=40;" parent="1" vertex="1">
          <mxGeometry x="143" y="70" width="170" height="30" as="geometry" />
        </mxCell>
        <mxCell id="qvlMFfMEuGQ3ZVcsGrCn-63" value="" style="rhombus;whiteSpace=wrap;html=1;" parent="1" vertex="1">
          <mxGeometry x="370" y="137" width="80" height="40" as="geometry" />
        </mxCell>
        <mxCell id="qvlMFfMEuGQ3ZVcsGrCn-64" value="" style="endArrow=classic;html=1;rounded=0;entryX=0.5;entryY=0;entryDx=0;entryDy=0;" parent="1" target="qvlMFfMEuGQ3ZVcsGrCn-63" edge="1">
          <mxGeometry width="50" height="50" relative="1" as="geometry">
            <mxPoint x="228" y="101" as="sourcePoint" />
            <mxPoint x="358.4000000000001" y="141.4000000000001" as="targetPoint" />
            <Array as="points">
              <mxPoint x="228" y="120" />
              <mxPoint x="410" y="121" />
            </Array>
          </mxGeometry>
        </mxCell>
        <mxCell id="qvlMFfMEuGQ3ZVcsGrCn-65" value="" style="endArrow=classic;html=1;rounded=0;exitX=1;exitY=0.5;exitDx=0;exitDy=0;entryX=0;entryY=0.5;entryDx=0;entryDy=0;" parent="1" source="qvlMFfMEuGQ3ZVcsGrCn-63" target="qvlMFfMEuGQ3ZVcsGrCn-66" edge="1">
          <mxGeometry width="50" height="50" relative="1" as="geometry">
            <mxPoint x="380" y="350" as="sourcePoint" />
            <mxPoint x="430" y="300" as="targetPoint" />
          </mxGeometry>
        </mxCell>
        <mxCell id="qvlMFfMEuGQ3ZVcsGrCn-66" value="&lt;span style=&quot;font-size: 14px;&quot;&gt;&lt;b&gt;Alert &quot;Not a valid administrator&quot;&lt;/b&gt;&lt;/span&gt;" style="rounded=1;whiteSpace=wrap;html=1;arcSize=40;" parent="1" vertex="1">
          <mxGeometry x="571" y="138" width="138" height="40" as="geometry" />
        </mxCell>
        <mxCell id="qvlMFfMEuGQ3ZVcsGrCn-67" value="&lt;font style=&quot;font-size: 13px;&quot;&gt;&lt;b&gt;[unauthorized]&lt;/b&gt;&lt;/font&gt;" style="text;html=1;align=center;verticalAlign=middle;whiteSpace=wrap;rounded=0;" parent="1" vertex="1">
          <mxGeometry x="459" y="137" width="90" height="20" as="geometry" />
        </mxCell>
        <mxCell id="qvlMFfMEuGQ3ZVcsGrCn-68" value="&lt;span style=&quot;font-size: 14px;&quot;&gt;&lt;b&gt;Check applies for exit&lt;/b&gt;&lt;/span&gt;" style="rounded=1;whiteSpace=wrap;html=1;arcSize=40;" parent="1" vertex="1">
          <mxGeometry x="146" y="202" width="159" height="30" as="geometry" />
        </mxCell>
        <mxCell id="qvlMFfMEuGQ3ZVcsGrCn-69" value="" style="endArrow=classic;html=1;rounded=0;entryX=0.5;entryY=0;entryDx=0;entryDy=0;exitX=0.5;exitY=1;exitDx=0;exitDy=0;" parent="1" source="qvlMFfMEuGQ3ZVcsGrCn-63" target="qvlMFfMEuGQ3ZVcsGrCn-68" edge="1">
          <mxGeometry width="50" height="50" relative="1" as="geometry">
            <mxPoint x="360" y="330" as="sourcePoint" />
            <mxPoint x="410" y="280" as="targetPoint" />
            <Array as="points">
              <mxPoint x="410" y="190" />
              <mxPoint x="225" y="190" />
            </Array>
          </mxGeometry>
        </mxCell>
        <mxCell id="qvlMFfMEuGQ3ZVcsGrCn-70" value="&lt;font style=&quot;font-size: 13px;&quot;&gt;&lt;b&gt;[authorized]&lt;/b&gt;&lt;/font&gt;" style="text;html=1;align=center;verticalAlign=middle;whiteSpace=wrap;rounded=0;" parent="1" vertex="1">
          <mxGeometry x="250" y="169" width="90" height="20" as="geometry" />
        </mxCell>
        <mxCell id="qvlMFfMEuGQ3ZVcsGrCn-71" value="" style="rhombus;whiteSpace=wrap;html=1;" parent="1" vertex="1">
          <mxGeometry x="371" y="251" width="80" height="40" as="geometry" />
        </mxCell>
        <mxCell id="qvlMFfMEuGQ3ZVcsGrCn-72" value="" style="endArrow=classic;html=1;rounded=0;exitX=0.5;exitY=1;exitDx=0;exitDy=0;entryX=0.5;entryY=0;entryDx=0;entryDy=0;" parent="1" edge="1">
          <mxGeometry width="50" height="50" relative="1" as="geometry">
            <mxPoint x="224.5" y="232" as="sourcePoint" />
            <mxPoint x="411" y="251" as="targetPoint" />
            <Array as="points">
              <mxPoint x="225" y="240" />
              <mxPoint x="410" y="240" />
            </Array>
          </mxGeometry>
        </mxCell>
        <mxCell id="qvlMFfMEuGQ3ZVcsGrCn-73" value="" style="endArrow=classic;html=1;rounded=0;exitX=1;exitY=0.5;exitDx=0;exitDy=0;entryX=0;entryY=0.5;entryDx=0;entryDy=0;" parent="1" edge="1">
          <mxGeometry width="50" height="50" relative="1" as="geometry">
            <mxPoint x="449" y="271" as="sourcePoint" />
            <mxPoint x="568" y="272" as="targetPoint" />
          </mxGeometry>
        </mxCell>
        <mxCell id="qvlMFfMEuGQ3ZVcsGrCn-74" value="&lt;font style=&quot;font-size: 13px;&quot;&gt;&lt;b&gt;[not any apply]&lt;/b&gt;&lt;/font&gt;" style="text;html=1;align=center;verticalAlign=middle;whiteSpace=wrap;rounded=0;" parent="1" vertex="1">
          <mxGeometry x="447" y="251" width="114" height="20" as="geometry" />
        </mxCell>
        <mxCell id="qvlMFfMEuGQ3ZVcsGrCn-75" value="&lt;span style=&quot;font-size: 14px;&quot;&gt;&lt;b&gt;Alert &quot;Does&#39;t have any exit apply&quot;&lt;/b&gt;&lt;/span&gt;" style="rounded=1;whiteSpace=wrap;html=1;arcSize=40;" parent="1" vertex="1">
          <mxGeometry x="569" y="252" width="138" height="40" as="geometry" />
        </mxCell>
        <mxCell id="qvlMFfMEuGQ3ZVcsGrCn-76" value="" style="endArrow=classic;html=1;rounded=0;entryX=0.859;entryY=0.145;entryDx=0;entryDy=0;entryPerimeter=0;" parent="1" edge="1">
          <mxGeometry width="50" height="50" relative="1" as="geometry">
            <mxPoint x="708" y="271" as="sourcePoint" />
            <mxPoint x="747.1500000000001" y="270.5" as="targetPoint" />
          </mxGeometry>
        </mxCell>
        <mxCell id="qvlMFfMEuGQ3ZVcsGrCn-77" value="" style="ellipse;html=1;shape=endState;fillColor=#000000;strokeColor=#0F0000;" parent="1" vertex="1">
          <mxGeometry x="748" y="255" width="30" height="30" as="geometry" />
        </mxCell>
        <mxCell id="qvlMFfMEuGQ3ZVcsGrCn-78" value="" style="endArrow=classic;html=1;rounded=0;entryX=0.5;entryY=0;entryDx=0;entryDy=0;exitX=0.5;exitY=1;exitDx=0;exitDy=0;" parent="1" edge="1">
          <mxGeometry width="50" height="50" relative="1" as="geometry">
            <mxPoint x="411" y="292" as="sourcePoint" />
            <mxPoint x="226" y="317" as="targetPoint" />
            <Array as="points">
              <mxPoint x="411" y="305" />
              <mxPoint x="226" y="305" />
            </Array>
          </mxGeometry>
        </mxCell>
        <mxCell id="qvlMFfMEuGQ3ZVcsGrCn-79" value="&lt;span style=&quot;font-size: 14px;&quot;&gt;&lt;b&gt;Conduct a final room inspection&lt;/b&gt;&lt;/span&gt;" style="rounded=1;whiteSpace=wrap;html=1;arcSize=40;" parent="1" vertex="1">
          <mxGeometry x="115" y="317" width="227" height="30" as="geometry" />
        </mxCell>
        <mxCell id="qvlMFfMEuGQ3ZVcsGrCn-80" value="&lt;font style=&quot;font-size: 13px;&quot;&gt;&lt;b&gt;[apply]&lt;/b&gt;&lt;/font&gt;" style="text;html=1;align=center;verticalAlign=middle;whiteSpace=wrap;rounded=0;" parent="1" vertex="1">
          <mxGeometry x="256" y="284" width="79" height="20" as="geometry" />
        </mxCell>
        <mxCell id="qvlMFfMEuGQ3ZVcsGrCn-82" value="" style="rhombus;whiteSpace=wrap;html=1;" parent="1" vertex="1">
          <mxGeometry x="371" y="419" width="80" height="40" as="geometry" />
        </mxCell>
        <mxCell id="qvlMFfMEuGQ3ZVcsGrCn-83" value="" style="endArrow=classic;html=1;rounded=0;exitX=1;exitY=0.5;exitDx=0;exitDy=0;entryX=0;entryY=0.5;entryDx=0;entryDy=0;" parent="1" edge="1">
          <mxGeometry width="50" height="50" relative="1" as="geometry">
            <mxPoint x="451" y="439" as="sourcePoint" />
            <mxPoint x="572" y="440" as="targetPoint" />
          </mxGeometry>
        </mxCell>
        <mxCell id="qvlMFfMEuGQ3ZVcsGrCn-84" value="&lt;span style=&quot;font-size: 13px;&quot;&gt;&lt;b&gt;[No]&lt;/b&gt;&lt;/span&gt;" style="text;html=1;align=center;verticalAlign=middle;whiteSpace=wrap;rounded=0;" parent="1" vertex="1">
          <mxGeometry x="455" y="419" width="103" height="20" as="geometry" />
        </mxCell>
        <mxCell id="qvlMFfMEuGQ3ZVcsGrCn-85" value="&lt;span style=&quot;font-size: 14px;&quot;&gt;&lt;b&gt;Alert &quot;Exit apply Denied.&quot;&lt;/b&gt;&lt;/span&gt;" style="rounded=1;whiteSpace=wrap;html=1;arcSize=40;" parent="1" vertex="1">
          <mxGeometry x="572" y="422" width="128" height="40" as="geometry" />
        </mxCell>
        <mxCell id="qvlMFfMEuGQ3ZVcsGrCn-86" value="" style="endArrow=classic;html=1;rounded=0;entryX=0.859;entryY=0.145;entryDx=0;entryDy=0;entryPerimeter=0;" parent="1" edge="1">
          <mxGeometry width="50" height="50" relative="1" as="geometry">
            <mxPoint x="701" y="440" as="sourcePoint" />
            <mxPoint x="740.1500000000001" y="439.5" as="targetPoint" />
          </mxGeometry>
        </mxCell>
        <mxCell id="qvlMFfMEuGQ3ZVcsGrCn-87" value="" style="ellipse;html=1;shape=endState;fillColor=#000000;strokeColor=#0F0000;" parent="1" vertex="1">
          <mxGeometry x="741" y="424" width="30" height="30" as="geometry" />
        </mxCell>
        <mxCell id="qvlMFfMEuGQ3ZVcsGrCn-101" value="" style="endArrow=classic;html=1;rounded=0;" parent="1" edge="1">
          <mxGeometry width="50" height="50" relative="1" as="geometry">
            <mxPoint x="576" y="573" as="sourcePoint" />
            <mxPoint x="576" y="600" as="targetPoint" />
          </mxGeometry>
        </mxCell>
        <mxCell id="qvlMFfMEuGQ3ZVcsGrCn-102" value="" style="ellipse;html=1;shape=endState;fillColor=#000000;strokeColor=#0F0000;" parent="1" vertex="1">
          <mxGeometry x="561.5" y="601" width="30" height="30" as="geometry" />
        </mxCell>
        <mxCell id="qvlMFfMEuGQ3ZVcsGrCn-104" value="&lt;span style=&quot;font-size: 14px;&quot;&gt;&lt;b&gt;Is Clear Dues and No Issues&lt;/b&gt;&lt;/span&gt;" style="rounded=1;whiteSpace=wrap;html=1;arcSize=40;" parent="1" vertex="1">
          <mxGeometry x="115" y="370" width="227" height="30" as="geometry" />
        </mxCell>
        <mxCell id="qvlMFfMEuGQ3ZVcsGrCn-107" value="" style="endArrow=classic;html=1;rounded=0;exitX=0.5;exitY=1;exitDx=0;exitDy=0;entryX=0.5;entryY=0;entryDx=0;entryDy=0;" parent="1" edge="1">
          <mxGeometry width="50" height="50" relative="1" as="geometry">
            <mxPoint x="224.5" y="400" as="sourcePoint" />
            <mxPoint x="411" y="419" as="targetPoint" />
            <Array as="points">
              <mxPoint x="225" y="408" />
              <mxPoint x="410" y="408" />
            </Array>
          </mxGeometry>
        </mxCell>
        <mxCell id="qvlMFfMEuGQ3ZVcsGrCn-108" value="" style="endArrow=classic;html=1;rounded=0;exitX=0.5;exitY=1;exitDx=0;exitDy=0;entryX=0.5;entryY=0;entryDx=0;entryDy=0;" parent="1" edge="1">
          <mxGeometry width="50" height="50" relative="1" as="geometry">
            <mxPoint x="225.5" y="347" as="sourcePoint" />
            <mxPoint x="225.5" y="370" as="targetPoint" />
          </mxGeometry>
        </mxCell>
        <mxCell id="1BeahEYRSswTNPkuLeCN-3" value="" style="endArrow=classic;html=1;rounded=0;exitX=0.5;exitY=1;exitDx=0;exitDy=0;entryX=0.5;entryY=0;entryDx=0;entryDy=0;" parent="1" edge="1">
          <mxGeometry width="50" height="50" relative="1" as="geometry">
            <mxPoint x="411.5" y="460" as="sourcePoint" />
            <mxPoint x="411.5" y="483" as="targetPoint" />
          </mxGeometry>
        </mxCell>
        <mxCell id="KWBHBXveWwm-pu_0PAQg-1" value="" style="endArrow=none;html=1;rounded=0;exitX=0.447;exitY=0.491;exitDx=0;exitDy=0;exitPerimeter=0;strokeWidth=3;" edge="1" parent="1">
          <mxGeometry width="50" height="50" relative="1" as="geometry">
            <mxPoint x="382.9499999999998" y="485.10000000000014" as="sourcePoint" />
            <mxPoint x="763" y="485" as="targetPoint" />
          </mxGeometry>
        </mxCell>
        <mxCell id="KWBHBXveWwm-pu_0PAQg-2" value="&lt;span style=&quot;font-size: 14px;&quot;&gt;&lt;b&gt;Approve Exit&lt;/b&gt;&lt;/span&gt;" style="rounded=1;whiteSpace=wrap;html=1;arcSize=40;" vertex="1" parent="1">
          <mxGeometry x="422" y="513" width="118" height="30" as="geometry" />
        </mxCell>
        <mxCell id="KWBHBXveWwm-pu_0PAQg-3" value="" style="endArrow=none;html=1;rounded=0;exitX=0.447;exitY=0.491;exitDx=0;exitDy=0;exitPerimeter=0;strokeWidth=3;" edge="1" parent="1">
          <mxGeometry width="50" height="50" relative="1" as="geometry">
            <mxPoint x="382.9499999999998" y="572.1000000000001" as="sourcePoint" />
            <mxPoint x="763" y="572" as="targetPoint" />
          </mxGeometry>
        </mxCell>
        <mxCell id="KWBHBXveWwm-pu_0PAQg-4" value="" style="endArrow=classic;html=1;rounded=0;" edge="1" parent="1">
          <mxGeometry width="50" height="50" relative="1" as="geometry">
            <mxPoint x="482" y="543" as="sourcePoint" />
            <mxPoint x="482" y="570" as="targetPoint" />
          </mxGeometry>
        </mxCell>
        <mxCell id="KWBHBXveWwm-pu_0PAQg-5" value="" style="endArrow=classic;html=1;rounded=0;" edge="1" parent="1">
          <mxGeometry width="50" height="50" relative="1" as="geometry">
            <mxPoint x="482" y="485" as="sourcePoint" />
            <mxPoint x="482" y="512" as="targetPoint" />
          </mxGeometry>
        </mxCell>
        <mxCell id="KWBHBXveWwm-pu_0PAQg-8" value="&lt;span style=&quot;font-size: 14px;&quot;&gt;&lt;b&gt;Update Member Status&lt;/b&gt;&lt;/span&gt;" style="rounded=1;whiteSpace=wrap;html=1;arcSize=40;" vertex="1" parent="1">
          <mxGeometry x="583" y="513" width="175" height="30" as="geometry" />
        </mxCell>
        <mxCell id="KWBHBXveWwm-pu_0PAQg-9" value="" style="endArrow=classic;html=1;rounded=0;" edge="1" parent="1">
          <mxGeometry width="50" height="50" relative="1" as="geometry">
            <mxPoint x="672" y="543" as="sourcePoint" />
            <mxPoint x="672" y="570" as="targetPoint" />
          </mxGeometry>
        </mxCell>
        <mxCell id="KWBHBXveWwm-pu_0PAQg-10" value="" style="endArrow=classic;html=1;rounded=0;" edge="1" parent="1">
          <mxGeometry width="50" height="50" relative="1" as="geometry">
            <mxPoint x="672" y="485" as="sourcePoint" />
            <mxPoint x="672" y="512" as="targetPoint" />
          </mxGeometry>
        </mxCell>
        <mxCell id="KWBHBXveWwm-pu_0PAQg-11" value="&lt;span style=&quot;font-size: 13px;&quot;&gt;&lt;b&gt;[Yes]&lt;/b&gt;&lt;/span&gt;" style="text;html=1;align=center;verticalAlign=middle;whiteSpace=wrap;rounded=0;" vertex="1" parent="1">
          <mxGeometry x="416" y="458" width="49" height="20" as="geometry" />
        </mxCell>
      </root>
    </mxGraphModel>
  </diagram>
</mxfile>
